HIERARCHY
ROOT Hips
{
	OFFSET 0.000000 0.000000 0.000000
	CHANNELS 6 Xposition Yposition Zposition Xrotation Yrotation Zrotation
	JOINT LeftUpLeg_virtual
	{
		OFFSET 0.000000 0.000000 0.000000
		CHANNELS 3 Xrotation Yrotation Zrotation
		JOINT LeftUpLeg
		{
			OFFSET 11.394100 -6.187798 -0.413800
			CHANNELS 3 Xrotation Yrotation Zrotation
			JOINT LeftLeg
			{
				OFFSET 0.430247 -32.302673 3.732800
				CHANNELS 3 Xrotation Yrotation Zrotation
				JOINT LeftFoot
				{
					OFFSET -0.430247 -48.264931 -6.423300
					CHANNELS 3 Xrotation Yrotation Zrotation
					JOINT LeftToeBase
					{
						OFFSET 4.230900 -16.068199 23.438400
						CHANNELS 3 Xrotation Yrotation Zrotation
						JOINT LeftToe_End
						{
							OFFSET 4.510700 0.695400 19.974600
							CHANNELS 3 Xrotation Yrotation Zrotation
							End Site
							{
								OFFSET 0 0 0
							}
						}
					}
				}
			}
		}
	}
	JOINT RightUpLeg_virtual
	{
		OFFSET 0.000000 0.000000 0.000000
		CHANNELS 3 Xrotation Yrotation Zrotation
		JOINT RightUpLeg
		{
			OFFSET -11.333700 -6.187798 -0.413800
			CHANNELS 3 Xrotation Yrotation Zrotation
			JOINT RightLeg
			{
				OFFSET -0.430392 -32.302628 3.733000
				CHANNELS 3 Xrotation Yrotation Zrotation
				JOINT RightFoot
				{
					OFFSET 0.430392 -48.264973 -6.423500
					CHANNELS 3 Xrotation Yrotation Zrotation
					JOINT RightToeBase
					{
						OFFSET -4.230900 -16.068199 23.438400
						CHANNELS 3 Xrotation Yrotation Zrotation
						JOINT RightToe_End
						{
							OFFSET -4.510700 0.695400 19.974600
							CHANNELS 3 Xrotation Yrotation Zrotation
							End Site
							{
								OFFSET 0 0 0
							}
						}
					}
				}
			}
		}
	}
	JOINT Spine_virtual
	{
		OFFSET 0.000000 0.000000 0.000000
		CHANNELS 3 Xrotation Yrotation Zrotation
		JOINT Spine
		{
			OFFSET -0.002400 12.777504 0.315300
			CHANNELS 3 Xrotation Yrotation Zrotation
			JOINT Spine1
			{
				OFFSET -0.002067 5.816869 0.032633
				CHANNELS 3 Xrotation Yrotation Zrotation
				JOINT Spine1_split
				{
					OFFSET -0.002067 5.816869 0.032633
					CHANNELS 3 Xrotation Yrotation Zrotation
					JOINT Spine2
					{
						OFFSET -0.002067 5.816869 0.032633
						CHANNELS 3 Xrotation Yrotation Zrotation
						JOINT Neck_virtual
						{
							OFFSET 0.000000 0.000000 0.000000
							CHANNELS 3 Xrotation Yrotation Zrotation
							JOINT Neck
							{
								OFFSET -0.003700 21.199493 -0.826900
								CHANNELS 3 Xrotation Yrotation Zrotation
								JOINT Head
								{
									OFFSET 0.000000 20.442200 4.834800
									CHANNELS 3 Xrotation Yrotation Zrotation
									JOINT HeadTop_End
									{
										OFFSET 0.000000 34.668396 4.968400
										CHANNELS 3 Xrotation Yrotation Zrotation
										End Site
										{
											OFFSET 0 0 0
										}
									}
								}
							}
						}
						JOINT LeftShoulder_virtual
						{
							OFFSET 0.000000 0.000000 0.000000
							CHANNELS 3 Xrotation Yrotation Zrotation
							JOINT LeftShoulder
							{
								OFFSET 3.288150 8.794197 -1.372250
								CHANNELS 3 Xrotation Yrotation Zrotation
								JOINT LeftShoulder_split
								{
									OFFSET 3.288150 8.794197 -1.372250
									CHANNELS 3 Xrotation Yrotation Zrotation
									JOINT LeftArm
									{
										OFFSET 11.953299 -2.279007 -0.146200
										CHANNELS 3 Xrotation Yrotation Zrotation
										JOINT LeftForeArm
										{
											OFFSET 18.448900 0.000000 0.000000
											CHANNELS 3 Xrotation Yrotation Zrotation
											JOINT LeftHand
											{
												OFFSET 29.527798 0.000000 0.000000
												CHANNELS 3 Xrotation Yrotation Zrotation
												End Site
												{
													OFFSET 0 0 0
												}
											}
										}
									}
								}
							}
						}
						JOINT RightShoulder_virtual
						{
							OFFSET 0.000000 0.000000 0.000000
							CHANNELS 3 Xrotation Yrotation Zrotation
							JOINT RightShoulder
							{
								OFFSET -3.249400 8.794197 -1.372250
								CHANNELS 3 Xrotation Yrotation Zrotation
								JOINT RightShoulder_split
								{
									OFFSET -3.249400 8.794197 -1.372250
									CHANNELS 3 Xrotation Yrotation Zrotation
									JOINT RightArm
									{
										OFFSET -11.953299 -2.279007 -0.146200
										CHANNELS 3 Xrotation Yrotation Zrotation
										JOINT RightForeArm
										{
											OFFSET -18.448900 0.000000 0.000000
											CHANNELS 3 Xrotation Yrotation Zrotation
											JOINT RightHand
											{
												OFFSET -29.527802 0.000000 0.000000
												CHANNELS 3 Xrotation Yrotation Zrotation
												End Site
												{
													OFFSET 0 0 0
												}
											}
										}
									}
								}
							}
						}
					}
				}
			}
		}
	}
}
MOTION
Frames: 9
Frame Time: 0.03333333
-0.046076 90.937973 -0.041359 0.000000 0.000000 0.000000 -0.669828 -15.843556 -1.562729 -40.832667 15.863364 14.423840 50.794853 4.247991 10.274969 -11.756963 0.934782 -10.284292 -0.201332 -0.000003 -0.000000 0.000000 0.000000 0.000000 -0.669828 -15.843556 -1.562729 -36.695236 -20.109311 -11.687572 50.303838 -3.877588 -10.254681 -15.028534 -1.452315 9.705178 -0.041267 -0.000003 -0.000001 0.000000 0.000000 0.000000 -0.669828 -15.843556 -1.562729 3.773711 1.248055 0.152946 2.523603 1.177439 -0.059023 0.000000 0.000000 0.000000 0.000000 0.000000 0.000000 2.503913 1.224027 -0.090937 0.457849 0.824230 4.848788 8.545303 11.130797 -0.783159 0.000000 0.000000 0.000000 2.503913 1.224027 -0.090937 0.513444 1.082368 14.986774 0.000000 0.000000 0.000000 -49.547422 -53.697175 -56.631964 0.000001 -52.589533 0.000000 0.000000 0.000000 0.000000 2.503913 1.224027 -0.090937 0.384724 -1.325532 -0.769391 0.000000 0.000000 0.000000 -176.134200 84.807891 169.697826 0.000002 25.659971 0.000000 0.000000 0.000000 0.000000 
0.040127 90.872467 0.010132 0.000000 0.000000 0.000000 -0.691656 -15.736001 -1.541845 -40.848090 15.703469 14.223623 50.977609 4.386801 10.273305 -11.854184 0.954845 -10.267660 -0.201739 0.000000 0.000000 0.000000 0.000000 0.000000 -0.691656 -15.736001 -1.541845 -36.919775 -20.440121 -12.119013 50.519378 -3.551463 -10.252426 -15.114203 -1.388045 9.663125 -0.041361 0.000003 -0.000001 0.000000 0.000000 0.000000 -0.691656 -15.736001 -1.541845 3.764943 1.211727 0.251381 2.511989 1.154429 0.015427 0.000000 0.000000 0.000000 0.000000 0.000000 0.000000 2.492557 1.203284 -0.016407 0.427323 0.835599 4.813935 8.559336 11.171116 -1.001660 0.000000 0.000000 0.000000 2.492557 1.203284 -0.016407 0.696101 0.770073 15.279767 0.000000 0.000000 0.000000 -49.162848 -53.221544 -56.426095 0.000010 -52.964716 0.000006 0.000000 0.000000 0.000000 2.492557 1.203284 -0.016407 0.383952 -1.340513 -0.713610 0.000000 0.000000 0.000000 -174.945105 84.873747 168.720467 0.000001 25.763197 0.000001 0.000000 0.000000 0.000000 
0.184206 90.793846 0.078796 0.000000 0.000000 0.000000 -0.775869 -15.665847 -1.521354 -40.773388 15.493586 13.927573 51.190997 4.663649 10.270946 -11.991686 0.982090 -10.264575 -0.204022 0.000007 -0.000004 0.000000 0.000000 0.000000 -0.775869 -15.665847 -1.521354 -37.121057 -20.696057 -12.594478 50.765610 -3.202944 -10.250318 -15.185754 -1.337998 9.659744 -0.041176 -0.000000 0.000004 0.000000 0.000000 0.000000 -0.775869 -15.665847 -1.521354 3.785988 1.196007 0.394210 2.524803 1.149000 0.120567 0.000000 0.000000 0.000000 0.000000 0.000000 0.000000 2.505398 1.201392 0.088318 0.385440 0.838613 4.727868 8.503748 11.082637 -1.138268 0.000000 0.000000 0.000000 2.505398 1.201392 0.088318 0.614098 0.699945 15.619079 0.000000 0.000000 0.000000 -49.322558 -52.782834 -56.988694 0.000003 -53.012756 -0.000002 0.000000 0.000000 0.000000 2.505398 1.201392 0.088318 0.369205 -1.423146 -0.665887 0.000000 0.000000 0.000000 -174.470270 84.880707 168.433489 0.000000 25.903089 0.000000 0.000000 0.000000 0.000000 
0.454121 90.705063 0.152081 0.000000 0.000000 0.000000 -0.903305 -15.781413 -1.469855 -40.641927 15.391792 13.570744 51.426564 5.124615 10.267665 -12.188339 0.978622 -10.237978 -0.209265 -0.000001 -0.000002 0.000000 0.000000 0.000000 -0.903305 -15.781413 -1.469855 -37.338575 -20.673017 -13.053636 51.024020 -2.857437 -10.248940 -15.165062 -1.313108 9.735071 -0.040974 0.000003 0.000004 0.000000 0.000000 0.000000 -0.903305 -15.781413 -1.469855 3.829666 1.247099 0.598470 2.560945 1.193398 0.289371 0.000000 0.000000 0.000000 0.000000 0.000000 0.000000 2.540846 1.251282 0.255826 0.335082 0.846978 4.551530 8.433188 10.901033 -1.359981 0.000000 0.000000 0.000000 2.540846 1.251282 0.255826 0.583201 0.552463 16.019215 0.000000 0.000000 0.000000 -49.494594 -52.085752 -57.569329 0.000003 -53.080177 0.000000 0.000000 0.000000 0.000000 2.540846 1.251282 0.255826 0.367403 -1.392477 -0.859874 0.000000 0.000000 0.000000 -173.383819 84.958729 167.419165 0.000000 26.040306 0.000000 0.000000 0.000000 0.000000 
0.934785 90.592735 0.202484 0.000000 0.000000 0.000000 -1.019100 -16.229457 -1.360870 -40.530339 15.432667 13.120336 51.705150 5.925788 10.262790 -12.452571 0.933144 -10.183132 -0.217732 0.000005 0.000005 0.000000 0.000000 0.000000 -1.019100 -16.229457 -1.360870 -37.747915 -20.331282 -13.556927 51.326502 -2.404143 -10.247922 -14.974898 -1.258800 9.871611 -0.041433 0.000039 -0.000002 0.000000 0.000000 0.000000 -1.019100 -16.229457 -1.360870 3.906695 1.459347 0.863239 2.637587 1.358618 0.553766 0.000000 0.000000 0.000000 0.000000 0.000000 0.000000 2.614523 1.425409 0.517045 0.277044 0.864343 4.350994 8.417535 10.791362 -2.011046 0.000000 0.000000 0.000000 2.614523 1.425409 0.517045 0.558450 0.306559 16.573090 0.000000 0.000000 0.000000 -49.569753 -51.340476 -58.091879 0.000013 -53.154004 0.000012 0.000000 0.000000 0.000000 2.614523 1.425409 0.517045 0.388354 -1.213217 -1.252905 0.000000 0.000000 0.000000 -170.525371 85.204042 164.486350 0.000001 26.197605 -0.000001 0.000000 0.000000 0.000000 
1.684580 90.429321 0.198956 0.000000 0.000000 0.000000 -1.032836 -17.008525 -1.142274 -40.518356 15.417690 12.367344 52.049576 7.292568 10.256565 -12.749051 0.900057 -10.143528 -0.226443 -0.000003 -0.000001 0.000000 0.000000 0.000000 -1.032836 -17.008525 -1.142274 -38.583158 -19.725009 -14.242261 51.742392 -1.740994 -10.246522 -14.578670 -1.138546 10.045928 -0.042963 -0.000019 -0.000003 0.000000 0.000000 0.000000 -1.032836 -17.008525 -1.142274 4.034168 1.894569 1.183940 2.770999 1.693597 0.912533 0.000000 0.000000 0.000000 0.000000 0.000000 0.000000 2.741004 1.773027 0.870629 0.241623 0.866780 4.296853 8.310411 10.946050 -3.577086 0.000000 0.000000 0.000000 2.741004 1.773027 0.870629 0.489668 -0.066780 17.302157 0.000000 0.000000 0.000000 -49.490185 -50.804620 -58.332930 0.000004 -53.235758 0.000001 0.000000 0.000000 0.000000 2.741004 1.773027 0.870629 0.396859 -1.137169 -1.439148 0.000000 0.000000 0.000000 -165.471277 85.441637 159.256106 -0.000002 26.489847 0.000001 0.000000 0.000000 0.000000 
2.658434 90.202759 0.126099 0.000000 0.000000 0.000000 -0.842655 -17.859463 -0.743639 -40.685446 15.085496 11.043249 52.471685 8.944496 10.249530 -12.972549 1.252993 -10.056123 -0.230015 -0.000003 -0.000001 0.000000 0.000000 0.000000 -0.842655 -17.859463 -0.743639 -39.920280 -18.899448 -15.158124 52.287533 -0.981416 -10.243441 -14.019382 -1.018880 10.286838 -0.043651 0.000003 -0.000001 0.000000 0.000000 0.000000 -0.842655 -17.859463 -0.743639 4.210034 2.386590 1.592194 2.945458 2.071076 1.314015 0.000000 0.000000 0.000000 0.000000 0.000000 0.000000 2.907239 2.163085 1.267599 0.278766 0.848934 4.465467 7.694690 11.474679 -6.223104 0.000000 0.000000 0.000000 2.907239 2.163085 1.267599 0.321497 -0.334173 18.006073 0.000000 0.000000 0.000000 -49.372999 -50.599899 -58.171526 0.000007 -53.246427 0.000011 0.000000 0.000000 0.000000 2.907239 2.163085 1.267599 0.350304 -1.394146 -1.265334 0.000000 0.000000 0.000000 -159.461216 85.299760 153.004953 0.000001 27.058856 0.000002 0.000000 0.000000 0.000000 
3.664065 89.967583 -0.006454 0.000000 0.000000 0.000000 -0.442727 -18.382022 -0.254130 -41.088690 14.481370 9.199788 53.060499 9.043114 10.243666 -13.005286 3.341542 -9.432851 -0.229213 -0.000007 -0.000003 0.000000 0.000000 0.000000 -0.442727 -18.382022 -0.254130 -41.398422 -18.002137 -16.071036 52.763027 -0.461474 -10.230145 -13.404870 -0.992209 10.638213 -0.042355 -0.000005 -0.000003 0.000000 0.000000 0.000000 -0.442727 -18.382022 -0.254130 4.427065 2.463125 2.133381 3.139672 2.120675 1.686252 0.000000 0.000000 0.000000 0.000000 0.000000 0.000000 3.104349 2.216927 1.640158 0.457793 0.916548 4.711777 6.469068 12.570972 -8.927739 0.000000 0.000000 0.000000 3.104349 2.216927 1.640158 -0.215477 0.196737 18.405656 0.000000 0.000000 0.000000 -49.675211 -50.611753 -58.351440 -0.000003 -52.891646 -0.000002 0.000000 0.000000 0.000000 3.104349 2.216927 1.640158 0.289396 -1.663593 -1.379076 0.000000 0.000000 0.000000 -152.956322 84.622396 146.243981 -0.000001 27.936022 0.000002 0.000000 0.000000 0.000000 
4.441948 89.823997 -0.181477 0.000000 0.000000 0.000000 -0.032300 -18.216698 -0.068104 -41.767092 13.232452 8.845480 53.777392 9.235866 8.703219 -13.052013 3.849820 -8.499285 -0.229625 0.000000 -0.000001 0.000000 0.000000 0.000000 -0.032300 -18.216698 -0.068104 -42.273578 -17.469022 -16.520605 52.810609 -0.557921 -10.239014 -12.866311 -1.057798 11.109973 -0.038318 0.000005 0.000006 0.000000 0.000000 0.000000 -0.032300 -18.216698 -0.068104 4.629994 1.679953 2.701866 3.302713 1.494120 1.929106 0.000000 0.000000 0.000000 0.000000 0.000000 0.000000 3.288199 1.577600 1.892838 0.911771 1.124048 5.142378 5.703009 14.274441 -9.475791 0.000000 0.000000 0.000000 3.288199 1.577600 1.892838 -1.210703 1.688097 18.621459 0.000000 0.000000 0.000000 -50.687992 -50.715821 -59.662461 0.000006 -51.859666 0.000004 0.000000 0.000000 0.000000 3.288199 1.577600 1.892838 0.313451 -1.393202 -2.160003 0.000000 0.000000 0.000000 -145.614661 83.787884 138.813104 0.000001 28.875455 0.000003 0.000000 0.000000 0.000000 
